<svg aria-hidden="true" xmlns="http://www.w3.org/2000/svg">
	<symbol id="en_us" viewBox="0 0 512 512">
		<g fill-rule="evenodd">
			<g stroke-width="1pt">
				<path fill="#bd3d44"
					d="M0 0h247v10H0zm0 20h247v10H0zm0 20h247v10H0zm0 20h247v10H0zm0 20h247v10H0zm0 20h247v10H0zm0 20h247v10H0z"
					transform="scale(3.9385)"></path>
				<path fill="#fff"
					d="M0 10h247v10H0zm0 20h247v10H0zm0 20h247v10H0zm0 20h247v10H0zm0 20h247v10H0zm0 20h247v10H0z"
					transform="scale(3.9385)"></path>
			</g>
			<path fill="#192f5d" d="M0 0h98.8v70H0z" transform="scale(3.9385)"></path>
			<path fill="#fff"
				d="M8.2 3l1 2.8H12L9.7 7.5l.9 2.7-2.4-1.7L6 10.2l.9-2.7-2.4-1.7h3zm16.5 0l.9 2.8h2.9l-2.4 1.7 1 2.7-2.4-1.7-2.4 1.7 1-2.7-2.4-1.7h2.9zm16.5 0l.9 2.8H45l-2.4 1.7 1 2.7-2.4-1.7-2.4 1.7 1-2.7-2.4-1.7h2.9zm16.4 0l1 2.8h2.8l-2.3 1.7.9 2.7-2.4-1.7-2.3 1.7.9-2.7-2.4-1.7h3zm16.5 0l.9 2.8h2.9l-2.4 1.7 1 2.7L74 8.5l-2.3 1.7.9-2.7-2.4-1.7h2.9zm16.5 0l.9 2.8h2.9L92 7.5l1 2.7-2.4-1.7-2.4 1.7 1-2.7-2.4-1.7h2.9zm-74.1 7l.9 2.8h2.9l-2.4 1.7 1 2.7-2.4-1.7-2.4 1.7 1-2.7-2.4-1.7h2.9zm16.4 0l1 2.8h2.8l-2.3 1.7.9 2.7-2.4-1.7-2.3 1.7.9-2.7-2.4-1.7h3zm16.5 0l.9 2.8h2.9l-2.4 1.7 1 2.7-2.4-1.7-2.4 1.7 1-2.7-2.4-1.7h2.9zm16.5 0l.9 2.8h2.9l-2.4 1.7 1 2.7-2.4-1.7-2.4 1.7 1-2.7-2.4-1.7H65zm16.4 0l1 2.8H86l-2.3 1.7.9 2.7-2.4-1.7-2.3 1.7.9-2.7-2.4-1.7h3zm-74 7l.8 2.8h3l-2.4 1.7.9 2.7-2.4-1.7L6 24.2l.9-2.7-2.4-1.7h3zm16.4 0l.9 2.8h2.9l-2.3 1.7.9 2.7-2.4-1.7-2.3 1.7.9-2.7-2.4-1.7h2.9zm16.5 0l.9 2.8H45l-2.4 1.7 1 2.7-2.4-1.7-2.4 1.7 1-2.7-2.4-1.7h2.9zm16.4 0l1 2.8h2.8l-2.3 1.7.9 2.7-2.4-1.7-2.3 1.7.9-2.7-2.4-1.7h3zm16.5 0l.9 2.8h2.9l-2.3 1.7.9 2.7-2.4-1.7-2.3 1.7.9-2.7-2.4-1.7h2.9zm16.5 0l.9 2.8h2.9L92 21.5l1 2.7-2.4-1.7-2.4 1.7 1-2.7-2.4-1.7h2.9zm-74.1 7l.9 2.8h2.9l-2.4 1.7 1 2.7-2.4-1.7-2.4 1.7 1-2.7-2.4-1.7h2.9zm16.4 0l1 2.8h2.8l-2.3 1.7.9 2.7-2.4-1.7-2.3 1.7.9-2.7-2.4-1.7h3zm16.5 0l.9 2.8h2.9l-2.3 1.7.9 2.7-2.4-1.7-2.3 1.7.9-2.7-2.4-1.7h2.9zm16.5 0l.9 2.8h2.9l-2.4 1.7 1 2.7-2.4-1.7-2.4 1.7 1-2.7-2.4-1.7H65zm16.4 0l1 2.8H86l-2.3 1.7.9 2.7-2.4-1.7-2.3 1.7.9-2.7-2.4-1.7h3zm-74 7l.8 2.8h3l-2.4 1.7.9 2.7-2.4-1.7L6 38.2l.9-2.7-2.4-1.7h3zm16.4 0l.9 2.8h2.9l-2.3 1.7.9 2.7-2.4-1.7-2.3 1.7.9-2.7-2.4-1.7h2.9zm16.5 0l.9 2.8H45l-2.4 1.7 1 2.7-2.4-1.7-2.4 1.7 1-2.7-2.4-1.7h2.9zm16.4 0l1 2.8h2.8l-2.3 1.7.9 2.7-2.4-1.7-2.3 1.7.9-2.7-2.4-1.7h3zm16.5 0l.9 2.8h2.9l-2.3 1.7.9 2.7-2.4-1.7-2.3 1.7.9-2.7-2.4-1.7h2.9zm16.5 0l.9 2.8h2.9L92 35.5l1 2.7-2.4-1.7-2.4 1.7 1-2.7-2.4-1.7h2.9zm-74.1 7l.9 2.8h2.9l-2.4 1.7 1 2.7-2.4-1.7-2.4 1.7 1-2.7-2.4-1.7h2.9zm16.4 0l1 2.8h2.8l-2.3 1.7.9 2.7-2.4-1.7-2.3 1.7.9-2.7-2.4-1.7h3zm16.5 0l.9 2.8h2.9l-2.3 1.7.9 2.7-2.4-1.7-2.3 1.7.9-2.7-2.4-1.7h2.9zm16.5 0l.9 2.8h2.9l-2.4 1.7 1 2.7-2.4-1.7-2.4 1.7 1-2.7-2.4-1.7H65zm16.4 0l1 2.8H86l-2.3 1.7.9 2.7-2.4-1.7-2.3 1.7.9-2.7-2.4-1.7h3zm-74 7l.8 2.8h3l-2.4 1.7.9 2.7-2.4-1.7L6 52.2l.9-2.7-2.4-1.7h3zm16.4 0l.9 2.8h2.9l-2.3 1.7.9 2.7-2.4-1.7-2.3 1.7.9-2.7-2.4-1.7h2.9zm16.5 0l.9 2.8H45l-2.4 1.7 1 2.7-2.4-1.7-2.4 1.7 1-2.7-2.4-1.7h2.9zm16.4 0l1 2.8h2.8l-2.3 1.7.9 2.7-2.4-1.7-2.3 1.7.9-2.7-2.4-1.7h3zm16.5 0l.9 2.8h2.9l-2.3 1.7.9 2.7-2.4-1.7-2.3 1.7.9-2.7-2.4-1.7h2.9zm16.5 0l.9 2.8h2.9L92 49.5l1 2.7-2.4-1.7-2.4 1.7 1-2.7-2.4-1.7h2.9zm-74.1 7l.9 2.8h2.9l-2.4 1.7 1 2.7-2.4-1.7-2.4 1.7 1-2.7-2.4-1.7h2.9zm16.4 0l1 2.8h2.8l-2.3 1.7.9 2.7-2.4-1.7-2.3 1.7.9-2.7-2.4-1.7h3zm16.5 0l.9 2.8h2.9l-2.3 1.7.9 2.7-2.4-1.7-2.3 1.7.9-2.7-2.4-1.7h2.9zm16.5 0l.9 2.8h2.9l-2.4 1.7 1 2.7-2.4-1.7-2.4 1.7 1-2.7-2.4-1.7H65zm16.4 0l1 2.8H86l-2.3 1.7.9 2.7-2.4-1.7-2.3 1.7.9-2.7-2.4-1.7h3zm-74 7l.8 2.8h3l-2.4 1.7.9 2.7-2.4-1.7L6 66.2l.9-2.7-2.4-1.7h3zm16.4 0l.9 2.8h2.9l-2.3 1.7.9 2.7-2.4-1.7-2.3 1.7.9-2.7-2.4-1.7h2.9zm16.5 0l.9 2.8H45l-2.4 1.7 1 2.7-2.4-1.7-2.4 1.7 1-2.7-2.4-1.7h2.9zm16.4 0l1 2.8h2.8l-2.3 1.7.9 2.7-2.4-1.7-2.3 1.7.9-2.7-2.4-1.7h3zm16.5 0l.9 2.8h2.9l-2.3 1.7.9 2.7-2.4-1.7-2.3 1.7.9-2.7-2.4-1.7h2.9zm16.5 0l.9 2.8h2.9L92 63.5l1 2.7-2.4-1.7-2.4 1.7 1-2.7-2.4-1.7h2.9z"
				transform="scale(3.9385)"></path>
		</g>
	</symbol>
	<symbol id="zh_tw" viewBox="0 0 512 512">
		<defs>
			<path id="a" fill="#ffde00" d="M1-.3L-.7.8 0-1 .6.8-1-.3z"></path>
		</defs>
		<path fill="#de2910" d="M0 0h512v512H0z"></path>
		<use width="30" height="20" transform="matrix(76.8 0 0 76.8 128 128)" xlink:href="#a"></use>
		<use width="30" height="20" transform="rotate(-121 142.6 -47) scale(25.5827)" xlink:href="#a"></use>
		<use width="30" height="20" transform="rotate(-98.1 198 -82) scale(25.6)" xlink:href="#a"></use>
		<use width="30" height="20" transform="rotate(-74 272.4 -114) scale(25.6137)" xlink:href="#a"></use>
		<use width="30" height="20" transform="matrix(16 -19.968 19.968 16 256 230.4)" xlink:href="#a"></use>
	</symbol>
</svg>