<svg xmlns="http://www.w3.org/2000/svg" width="256" height="256"><path fill-opacity=".016" d="M0 128.004v128.004l128.25-.254 128.25-.254.254-127.75L257.008 0H0v128.004m.485.496c0 70.4.119 99.053.265 63.672.146-35.38.146-92.98 0-128C.604 29.153.485 58.1.485 128.5" fill="#1976D2" fill-rule="evenodd"/><path fill-opacity=".171" d="M86.085 38.069c-8.357 1.484-22.744 7.609-31.585 13.446C22.338 72.749 6.85 111.233 15.468 148.5c6.476 28.004 28.78 53.37 56.191 63.905 12.058 4.635 21.434 5.968 37.556 5.343 14.944-.581 21.904-2.323 35.285-8.836 8.289-4.035 19.859-12.376 19.312-13.923-.621-1.759-16.005-18.989-16.955-18.989-.536 0-2.635 1.331-4.666 2.957-4.596 3.681-16.901 9.352-24.191 11.148-8.899 2.193-23.104 1.546-32.5-1.478-20.616-6.637-35.016-20.696-42.136-41.137-2.404-6.901-2.788-9.557-2.823-19.49-.036-10.043.325-12.616 2.845-20.306C50.003 87.506 64.69 73.091 85.5 66.362c10.076-3.259 24.505-3.661 34.5-.962 29.449 7.951 48.957 34.073 47.827 64.039-.301 7.966-.168 8.692 1.673 9.139 8.875 2.154 23.644 3.998 24.245 3.027.376-.608.865-5.257 1.088-10.333 1.821-41.592-24.517-78.394-65.333-91.289-5.676-1.793-9.931-2.274-22.5-2.543-8.525-.183-17.937.101-20.915.629M105.5 97.086c-5.5 4.963-10 9.415-10 9.893 0 .479 13.071 15.191 29.047 32.695a56396.398 56396.398 0 0 1 47.941 52.596c10.391 11.423 19.239 20.648 19.662 20.5 1.336-.469 50.852-45.868 50.81-46.585-.022-.377-4.231-5.158-9.354-10.624l-9.313-9.94-14.668 13.44c-8.067 7.391-15.05 13.57-15.517 13.729-.467.16-16.95-17.39-36.627-39-19.678-21.609-37.174-40.738-38.88-42.508l-3.101-3.219-10 9.023" fill="#1976D2" fill-rule="evenodd"/><path fill-opacity=".591" d="M86.691 38.591c-30.005 5.422-57.774 29.303-67.864 58.361-5.077 14.622-6.458 34.437-3.401 48.791 6.12 28.727 26.353 53.658 52.574 64.783 22.099 9.377 47.554 9.804 69.5 1.168 7.251-2.854 24.533-13.32 26.052-15.777.34-.551-2.882-4.919-7.159-9.709-4.277-4.789-8.087-9.083-8.467-9.541-.38-.458-2.92.769-5.644 2.726-20.278 14.568-46.509 16.425-68.669 4.86-10.519-5.49-21.135-16.441-26.452-27.287-6.052-12.345-7.499-19.154-6.893-32.447.607-13.317 3.424-22.279 10.216-32.495C61.891 74.866 79.723 64.646 100.5 63.359c18.787-1.164 35.447 5.306 49.009 19.034 13.065 13.225 18.819 27.259 18.802 45.857-.005 5.363.035 9.753.09 9.757.054.003 5.274.9 11.599 1.993s12.016 1.99 12.646 1.993c1.898.011 2.683-14.765 1.337-25.155-4.233-32.666-24.387-59.632-54.235-72.567-15.674-6.792-35.287-8.892-53.057-5.68m18.39 59.267c-6.875 6.414-9.186 9.163-8.557 10.181.474.767 21.998 24.584 47.83 52.928 25.833 28.343 47.082 51.681 47.22 51.862.138.181 11.727-10.153 25.754-22.964l25.502-23.295-3.079-3.535c-1.693-1.944-5.848-6.538-9.231-10.209l-6.153-6.673-15.394 14.034-15.394 14.034-4.54-5.121c-20.725-23.381-72.743-79.964-73.539-79.993-.55-.019-5.238 3.919-10.419 8.751" fill="#1976D2" fill-rule="evenodd"/><path fill-opacity=".976" d="M91 38.105c-8.799 1.347-23.129 6.249-30.818 10.541C38.805 60.581 23.36 80.64 16.792 105c-3.2 11.869-3.174 33.675.055 45.5 8.982 32.891 33.94 56.847 67.916 65.189 10.402 2.554 29.419 2.287 40.737-.573 14.3-3.613 37-15.832 37-19.917 0-1.491-14.304-18.199-15.58-18.199-.504 0-3.054 1.521-5.668 3.38-15.126 10.76-35.133 14.382-53.496 9.685-22.454-5.742-40.169-23.377-46.358-46.145-2.329-8.568-2.329-24.272 0-32.84 6.16-22.664 23.946-40.413 46.198-46.105 14.917-3.815 32.594-1.946 46.103 4.873 22.173 11.193 36.638 36.265 35.072 60.788l-.456 7.136 12.092 1.89c8.119 1.268 12.334 1.552 12.828.863 1.554-2.168.74-23.941-1.235-33.025-2.636-12.13-10.859-28.585-19.203-38.43-16.114-19.014-39.798-30.452-65.297-31.535-5.5-.234-12.925.023-16.5.57m14.977 59.522c-5.212 4.752-9.477 8.984-9.477 9.405 0 .662 20.732 23.617 80.35 88.968 7.778 8.525 14.601 15.5 15.164 15.5 1.192 0 50.007-44.292 49.943-45.314-.024-.377-4.01-4.927-8.858-10.11l-8.814-9.424-14.705 13.424c-8.087 7.383-15.084 13.56-15.549 13.726-.464.166-16.923-17.384-36.575-39-19.652-21.616-37.142-40.767-38.867-42.558l-3.135-3.257-9.477 8.64" fill="#1976D2" fill-rule="evenodd"/></svg>