<svg xmlns="http://www.w3.org/2000/svg" width="256" height="256"><path fill-opacity=".016" d="M0 128.004v128.004l128.25-.254 128.25-.254.254-127.75L257.008 0H0v128.004m.485.496c0 70.4.119 99.053.265 63.672.146-35.38.146-92.98 0-128C.604 29.153.485 58.1.485 128.5" fill="#FBBE24" fill-rule="evenodd"/><path fill-opacity=".259" d="M62 25.475C38.172 30.351 18.133 47.431 9.608 70.131c-4.31 11.477-4.795 18.37-4.384 62.369.424 45.432.52 46.211 7.379 60.125 8.81 17.873 25.685 31.634 45.51 37.11 5.793 1.601 12.292 1.765 69.887 1.765s64.094-.164 69.887-1.765c24.749-6.836 44.034-26.089 50.823-50.735 1.596-5.795 1.79-11.324 1.79-51 0-39.441-.201-45.226-1.765-50.887-5.476-19.825-19.237-36.7-37.11-45.51-14.681-7.237-12.19-7.015-81.125-7.248-48.34-.164-63.432.083-68.5 1.12" fill="#FBBE24" fill-rule="evenodd"/><path fill-opacity=".274" d="M100 44.597c-23.031 4.255-40.77 13.946-53.605 29.285-6.452 7.709-14.448 23.53-16.993 33.618-2.377 9.424-2.417 28.603-.078 37.379 4.145 15.548 9.986 26.144 20.589 37.35 16.636 17.582 36.145 25.932 60.451 25.873 13.031-.032 23.223-2.28 34.45-7.599 8.128-3.851 19.186-11.235 19.186-12.812 0-.827-6.265-8.46-13.648-16.629-1.117-1.236-1.934-.983-5.8 1.793-9.743 6.997-22.476 11.145-34.213 11.145-9.855 0-16.319-1.505-26.231-6.107-15.002-6.965-27.762-22.883-31.017-38.692-.6-2.915-1.091-9.008-1.091-13.54 0-15.973 5.008-27.706 16.966-39.747 11.926-12.009 23.811-16.881 41.232-16.902C142.877 68.972 168 94.339 168 127.375c0 9.843-1.534 8.579 13.463 11.095 5.25.881 9.332 1.135 9.855.612 1.505-1.505 1.016-22.037-.713-29.906-3.388-15.423-10.295-28.015-21.949-40.015C153.611 53.669 134.648 45.269 113 44.505c-5.775-.203-11.625-.162-13 .092m11.45 54.392c-4.923 4.497-8.95 8.668-8.95 9.27 0 1.705 85.848 95.661 87.202 95.438 1.147-.188 46.298-40.642 46.298-41.481 0-.698-16.25-18.216-16.898-18.216-.339 0-6.746 5.597-14.236 12.437l-13.62 12.437-32.873-36.011c-18.08-19.806-34.021-37.37-35.423-39.03l-2.55-3.019-8.95 8.175" fill="#FBBE24" fill-rule="evenodd"/><path fill-opacity=".985" d="M89.432 47.381C65.057 53.85 46.24 69.464 35.554 92.089c-5.715 12.101-7.029 18.544-7.012 34.411.016 16.49 1.368 22.564 8.01 36 10.372 20.984 28.67 35.986 52.071 42.695 11.305 3.24 31.415 3.192 42.877-.103 9.299-2.673 23.345-9.673 28.782-14.343l3.782-3.249-7.544-8.653-7.544-8.653-6.423 4.307c-22.249 14.919-51.207 13.087-71.756-4.541-6.504-5.58-14.323-17.641-17.04-26.285-3.308-10.522-3.11-26.5.444-35.917 5.464-14.475 15.236-25.981 27.717-32.634 30.252-16.124 68.315-3.01 81.945 28.234 3.25 7.447 5.473 19.953 4.725 26.57l-.643 5.683 11.046 1.843c6.075 1.013 11.35 1.539 11.721 1.168.371-.372.865-4.656 1.098-9.522 1.483-31.024-16.868-61.688-45.282-75.668-11.81-5.81-19.407-7.58-34.528-8.044-11.901-.364-14.574-.128-22.568 1.993m21.355 52.899-8.713 8.22 43.017 47c23.66 25.85 43.373 47.357 43.807 47.794.652.655 30.692-25.751 43.007-37.804l3.405-3.333-2.79-3.329c-1.535-1.83-5.19-5.925-8.122-9.099l-5.332-5.772-13.708 12.547c-7.54 6.9-14.003 12.422-14.363 12.271-.361-.151-16.357-17.488-35.547-38.525-19.19-21.037-35.129-38.236-35.42-38.22-.29.017-4.449 3.729-9.241 8.25" fill="#FBBE24" fill-rule="evenodd"/></svg>